# Blender v2.90.1 OBJ File: 'tube.blend'
# www.blender.org
o Sundial_Arrow.002
v 0.000000 -0.032649 -0.000000
v 0.015000 -0.028241 0.700000
v 0.000000 -0.032649 0.700000
v 0.015000 -0.028241 -0.000000
v 0.025950 -0.016324 0.700000
v 0.025950 -0.016324 -0.000000
v 0.030000 -0.000000 0.700000
v 0.000000 0.032649 0.000000
v -0.015000 0.028241 0.700000
v 0.000000 0.032649 0.700000
v -0.015000 0.028241 0.000000
v -0.025950 0.016324 0.700000
v -0.025950 0.016324 0.000000
v -0.030000 -0.000000 0.700000
v 0.030000 0.000000 0.000000
v -0.030000 0.000000 0.000000
v 0.025950 0.016324 0.700000
v 0.025950 0.016324 0.000000
v 0.015000 0.028241 0.700000
v 0.015000 0.028241 0.000000
v -0.025950 -0.016324 0.700000
v -0.025950 -0.016324 -0.000000
v -0.015000 -0.028241 0.700000
v -0.015000 -0.028241 -0.000000
vt 0.000000 0.500000
vt 0.000000 1.000000
vt 0.083333 1.000000
vt 0.083333 0.500000
vt 0.166667 1.000000
vt 0.166667 0.500000
vt 0.250000 1.000000
vt 0.500000 0.500000
vt 0.500000 1.000000
vt 0.583333 1.000000
vt 0.583333 0.500000
vt 0.666667 1.000000
vt 0.666667 0.500000
vt 0.750000 1.000000
vt 0.250000 0.500000
vt 0.750000 0.500000
vt 0.333333 1.000000
vt 0.333333 0.500000
vt 0.416667 1.000000
vt 0.416667 0.500000
vt 0.833333 1.000000
vt 0.833333 0.500000
vt 0.916667 1.000000
vt 0.916667 0.500000
vt 1.000000 1.000000
vt 1.000000 0.500000
vn -0.2819 0.9594 0.0000
vn -0.4540 0.8910 0.0000
vn -0.4860 0.8739 0.0000
vn -0.8407 0.5415 0.0000
vn -0.8583 0.5131 0.0001
vn -0.9706 0.2408 0.0000
vn 0.2819 -0.9594 -0.0000
vn 0.4540 -0.8910 -0.0000
vn 0.4860 -0.8739 -0.0000
vn 0.8407 -0.5415 -0.0000
vn 0.8583 -0.5131 -0.0000
vn 0.9706 -0.2408 -0.0000
vn -0.9706 -0.2408 -0.0000
vn -0.9185 -0.3953 -0.0000
vn -0.9051 -0.4252 -0.0001
vn -0.6061 -0.7954 -0.0000
vn -0.5775 -0.8164 -0.0001
vn -0.2819 -0.9594 -0.0000
vn 0.9706 0.2408 0.0000
vn 0.9185 0.3953 0.0000
vn 0.9051 0.4252 0.0001
vn 0.6061 0.7954 0.0000
vn 0.5775 0.8164 0.0001
vn 0.2819 0.9594 0.0000
vn 0.0000 -0.0000 1.0000
vn -0.0337 0.0369 0.9988
vn 0.0000 0.0000 -1.0000
vn -0.0176 -0.0710 -0.9973
vn -0.0543 0.0591 -0.9968
vn -0.0520 0.0154 0.9985
vn -0.0306 -0.0333 0.9990
vn -0.0103 -0.0409 0.9991
vn 0.0338 -0.0368 0.9988
vn 0.0102 0.0410 0.9991
vn 0.0520 -0.0153 0.9985
vn 0.0306 0.0333 0.9990
vn -0.0532 -0.0579 -0.9969
vn -0.0832 0.0245 -0.9962
vn 0.0176 0.0710 -0.9973
vn 0.0543 -0.0591 -0.9968
vn 0.0532 0.0579 -0.9969
vn 0.0832 -0.0245 -0.9962
s 1
f 1/1/1 3/2/1 2/3/2
f 4/4/3 2/3/2 5/5/4
f 6/6/5 5/5/4 7/7/6
f 8/8/7 10/9/7 9/10/8
f 11/11/9 9/10/8 12/12/10
f 13/13/11 12/12/10 14/14/12
f 1/1/1 2/3/2 4/4/3
f 4/4/3 5/5/4 6/6/5
f 6/6/5 7/7/6 15/15/6
f 8/8/7 9/10/8 11/11/9
f 11/11/9 12/12/10 13/13/11
f 13/13/11 14/14/12 16/16/12
s 2
f 15/15/13 7/7/13 17/17/14
f 18/18/15 17/17/14 19/19/16
f 20/20/17 19/19/16 10/9/18
f 16/16/19 14/14/19 21/21/20
f 22/22/21 21/21/20 23/23/22
f 24/24/23 23/23/22 3/25/24
f 15/15/13 17/17/14 18/18/15
f 18/18/15 19/19/16 20/20/17
f 20/20/17 10/9/18 8/8/18
f 16/16/19 21/21/20 22/22/21
f 22/22/21 23/23/22 24/24/23
f 24/24/23 3/25/24 1/26/24
s 4
f 16/16/25 22/22/26 15/15/25
f 7/7/27 5/5/28 21/21/29
f 24/24/30 1/26/25 4/4/31
f 4/4/31 6/6/32 24/24/30
f 6/6/32 15/15/25 22/22/26
f 24/24/30 6/6/32 22/22/26
f 15/15/25 18/18/33 13/13/34
f 18/18/33 20/20/35 11/11/36
f 20/20/35 8/8/25 11/11/36
f 11/11/36 13/13/34 18/18/33
f 13/13/34 16/16/25 15/15/25
f 5/5/28 2/3/37 21/21/29
f 2/3/37 3/25/27 23/23/38
f 21/21/29 2/3/37 23/23/38
f 21/21/29 14/14/27 7/7/27
f 14/14/27 12/12/39 17/17/40
f 12/12/39 9/10/41 17/17/40
f 9/10/41 10/9/27 19/19/42
f 17/17/40 9/10/41 19/19/42
f 17/17/40 7/7/27 14/14/27
o Plane
v 0.000000 0.000000 0.700000
v 0.000000 0.000000 0.700000
